PathFileType	4	(X/Y/Z)	/Users/mathieubourgeois/Desktop/Analyse/Traitement/Sujet_02/Transformed_Static_Sujet_02_Tpose.trc
DataRate	CameraRate	NumFrames	NumMarkers	Units	OrigDataRate	OrigDataStartFrame	OrigNumFrames
120.000000	120.000000	4	36	mm	120.000000	38	308
Frame#	Time	RFHD			RANE			STRN			LANI			LKNE			T10			RHUM			RWRB			C7			LFWT			LTOE			RTOE			LWRA			LBWT			RBWT			RFWT			LKNI			RKNI			RKNE			LANE			RANI			LHEE			RHEE			LHUM			LRAD			RRAD			RWRA			LWRB			LFHD			LBHD			RBHD			RSHO			LSHO			CLAV			LCAR			RCAR			
		X1	Y1	Z1	X2	Y2	Z2	X3	Y3	Z3	X4	Y4	Z4	X5	Y5	Z5	X6	Y6	Z6	X7	Y7	Z7	X8	Y8	Z8	X9	Y9	Z9	X10	Y10	Z10	X11	Y11	Z11	X12	Y12	Z12	X13	Y13	Z13	X14	Y14	Z14	X15	Y15	Z15	X16	Y16	Z16	X17	Y17	Z17	X18	Y18	Z18	X19	Y19	Z19	X20	Y20	Z20	X21	Y21	Z21	X22	Y22	Z22	X23	Y23	Z23	X24	Y24	Z24	X25	Y25	Z25	X26	Y26	Z26	X27	Y27	Z27	X28	Y28	Z28	X29	Y29	Z29	X30	Y30	Z30	X31	Y31	Z31	X32	Y32	Z32	X33	Y33	Z33	X34	Y34	Z34	X35	Y35	Z35	X36	Y36	Z36	

39	0.3166666666666667	-157.0091094970704	1798.253540039062	370.7244262695311	-226.0884552001953	101.894416809082	237.3177642822265	-45.45571899414067	1413.671875	422.9599304199218	76.7889709472656	120.4016723632813	269.3583374023438	155.4116516113281	557.4547729492188	244.8916015625	-42.14092254638674	1380.546997070312	172.6504364013671	-499.5562744140625	1504.56787109375	224.2879943847655	-778.0850219726562	1584.269775390625	235.5594024658201	-46.03499221801761	1620.734130859375	223.3007659912109	87.98053741455072	1109.635498046875	406.8515624999999	172.8780670166015	59.34638595581058	457.206298828125	-252.4930267333985	59.95209884643558	459.4285888671874	712.1527099609375	1496.5458984375	328.7051391601562	16.3287658691406	1143.852783203125	223.1251983642578	-104.8864822387696	1146.3818359375	222.8296661376953	-188.6969757080079	1122.0244140625	398.5966186523437	61.59312057495114	517.1803588867188	277.7176513671874	-132.6573791503907	527.6431274414062	288.8435668945312	-222.9639129638672	579.9766845703125	250.6690826416015	160.3597259521484	101.5858154296875	229.572738647461	-145.4698638916016	119.8375625610352	278.8222351074219	105.6940002441406	70.35134887695314	177.2496337890625	-161.904769897461	64.50193786621095	186.6152801513672	430.0072021484374	1468.423217773438	331.0164489746093	438.6480102539062	1520.847900390625	281.3982238769531	-504.6954345703126	1461.618896484375	291.0287475585936	-773.4213256835938	1524.0341796875	207.9410400390623	707.0043334960938	1564.867065429688	348.5423583984375	-10.21890449523931	1797.760009765625	415.1403503417968	29.19945144653317	1746.330932617188	279.225860595703	-130.2305908203125	1743.844970703125	247.9319915771483	-212.541976928711	1594.741333007812	254.3455047607421	121.6642456054687	1616.316162109375	288.2192077636718	-34.93244171142583	1588.5712890625	379.1465454101561	817.127685546875	1528.592163085938	313.7833557128906	-882.699951171875	1553.583618164062	186.4603881835936	
40	0.325	-157.1265258789063	1798.189086914062	370.7763061523436	-226.0857238769532	101.889389038086	237.3182220458984	-45.47729873657232	1413.667846679688	422.961944580078	76.785285949707	120.4010620117188	269.358642578125	155.4195404052734	557.4498901367188	244.8742218017578	-42.22306442260744	1380.529296875	172.651870727539	-499.6525573730469	1504.54638671875	224.430206298828	-778.1893310546875	1584.210815429688	235.6381378173826	-46.15070724487308	1620.72216796875	223.2790527343749	88.00562286376947	1109.644287109375	406.8616027832031	172.8764495849609	59.34686279296878	457.2010498046875	-252.4871520996094	59.96944808959964	459.4286193847656	712.0642700195312	1496.6494140625	328.7013549804688	16.31744003295896	1143.842041015625	223.1684570312499	-104.905029296875	1146.383178710938	222.8682250976562	-188.6820831298829	1122.005615234375	398.6356506347656	61.59716796874996	517.1866455078125	277.7246398925781	-132.6521606445313	527.630859375	288.8462219238281	-222.9578094482422	579.983642578125	250.6911468505859	160.3703918457031	101.5933532714844	229.5648803710938	-145.4734649658203	119.8252639770508	278.8331298828125	105.6988220214843	70.35474395751955	177.2405700683594	-161.9242553710938	64.49267578125001	186.6233520507812	429.9405822753906	1468.513305664062	330.9644165039062	438.5457153320312	1520.908569335938	281.3070678710937	-504.7873840332032	1461.641479492188	291.2246093749998	-773.5186767578125	1523.951049804688	208.1045074462889	706.9164428710938	1565.075439453125	348.2017211914062	-10.30331707000738	1797.705810546875	415.2025451660155	29.09285545349118	1746.351196289062	279.2415466308593	-130.4360504150391	1743.806640625	247.9297637939452	-212.6273498535157	1594.691040039062	254.3899688720702	121.5752792358398	1616.365112304688	288.165069580078	-35.00929641723638	1588.572631835938	379.1275024414061	817.0596313476562	1528.598510742188	313.6769409179688	-882.7804565429688	1553.394775390625	186.5499725341795	
41	0.3333333333333333	-157.2214050292969	1798.151489257812	370.865509033203	-226.08984375	101.891357421875	237.3276672363281	-45.49694061279302	1413.66455078125	422.9472045898436	76.78891754150388	120.3984069824219	269.3553466796875	155.4183959960937	557.4784545898438	244.8843536376953	-42.31143188476565	1380.523071289062	172.6680755615234	-499.7109069824219	1504.555297851562	224.5646362304686	-778.2892456054688	1584.171752929688	235.7016448974608	-46.25455093383792	1620.714233398438	223.270782470703	88.0195693969726	1109.659057617188	406.8861389160156	172.8805084228515	59.3621635437012	457.2078247070312	-252.4906616210938	59.97041702270511	459.4346923828124	712.0886840820312	1496.439453125	328.55419921875	16.32419013977048	1143.85546875	223.1830444335937	-104.895004272461	1146.36865234375	222.9043731689453	-188.6665954589844	1122.010498046875	398.7061157226562	61.59847259521481	517.1881103515625	277.7442321777343	-132.6362457275391	527.6298828125	288.8419189453124	-222.9359741210938	579.9794311523438	250.6964416503906	160.375	101.6019821166992	229.5698852539063	-145.4635620117188	119.8254623413086	278.8243103027344	105.6917343139648	70.37387084960939	177.2502593994141	-161.9037475585938	64.50549316406251	186.6104736328125	429.8643493652343	1468.601440429688	330.9036254882812	438.4627685546874	1520.990600585938	281.2191467285156	-504.8620605468751	1461.666625976562	291.4221801757811	-773.5901489257812	1523.881713867188	208.2621307373045	706.8521118164062	1565.26416015625	347.9018249511719	-10.39484119415288	1797.667724609375	415.2406616210936	28.98922348022457	1746.410278320312	279.2378845214843	-130.4734344482422	1743.860473632812	248.0476074218749	-212.711654663086	1594.664672851562	254.4249725341796	121.4748001098633	1616.400024414062	288.1325073242186	-35.05851364135747	1588.587890625	379.1209716796874	817.0033569335938	1528.60888671875	313.5317077636719	-882.8693237304688	1553.2412109375	186.6283416748045	
42	0.3416666666666667	-157.3175659179688	1798.114135742188	370.9537658691405	-226.0753631591797	101.8992080688477	237.3046722412109	-45.49843978881841	1413.6796875	422.9333496093749	76.78265380859372	120.4121627807617	269.3699035644531	155.4247589111328	557.4857177734375	244.9003295898438	-42.37195205688479	1380.526245117188	172.6953887939452	-499.772705078125	1504.536254882812	224.7215423583983	-778.3731079101562	1584.12158203125	235.7936706542967	-46.35444259643558	1620.7119140625	223.2474975585937	88.0515518188476	1109.677978515625	406.8966979980468	172.8764648437499	59.36599731445315	457.2014770507812	-252.4909820556641	59.97404861450198	459.4305114746093	711.9994506835938	1496.569091796875	328.5589904785156	16.33818244934079	1143.866943359375	223.2145843505859	-104.9057159423828	1146.361572265625	222.9527282714843	-188.6509704589844	1122.006713867188	398.7732849121093	61.60195159912106	517.2017822265625	277.7680358886718	-132.6239166259766	527.6436767578125	288.8478088378906	-222.9327087402344	579.9863891601562	250.7309112548828	160.369400024414	101.602165222168	229.55810546875	-145.4604644775391	119.8244857788086	278.8219909667969	105.6909637451172	70.37447357177736	177.2484436035156	-161.9082336425782	64.50921630859376	186.6111907958984	429.7930297851562	1468.685791015625	330.8610229492187	438.3620605468749	1521.045654296875	281.1628723144531	-504.9361267089844	1461.688110351562	291.601104736328	-773.669921875	1523.793212890625	208.4227142333983	706.7733764648438	1565.435791015625	347.5934448242188	-10.47833633422857	1797.612426757812	415.2726745605468	28.87936019897457	1746.478149414062	279.216339111328	-130.6935424804688	1743.841674804688	248.0495300292967	-212.7872009277344	1594.607055664062	254.4578247070311	121.3792953491211	1616.4462890625	288.0825195312499	-35.10870742797857	1588.606323242188	379.123321533203	816.9366455078125	1528.61181640625	313.3925170898438	-882.93310546875	1553.120849609375	186.7184753417967	
